<?xml version="1.0" encoding="UTF-8" standalone="no"?>
<!-- Created with Inkscape (http://www.inkscape.org/) -->

<svg
   xmlns:dc="http://purl.org/dc/elements/1.1/"
   xmlns:cc="http://creativecommons.org/ns#"
   xmlns:rdf="http://www.w3.org/1999/02/22-rdf-syntax-ns#"
   xmlns:svg="http://www.w3.org/2000/svg"
   xmlns="http://www.w3.org/2000/svg"
   xmlns:sodipodi="http://sodipodi.sourceforge.net/DTD/sodipodi-0.dtd"
   xmlns:inkscape="http://www.inkscape.org/namespaces/inkscape"
   width="210mm"
   height="297mm"
   viewBox="0 0 744.09448819 1052.3622047"
   id="svg7652"
   version="1.1"
   inkscape:version="0.91 r13725"
   sodipodi:docname="SystemsDiagram.svg"
   inkscape:export-filename="C:\Users\Bryce\Desktop\GIT\Design_Portfolio\images\SystemsDiagram.png"
   inkscape:export-xdpi="99.989998"
   inkscape:export-ydpi="99.989998">
  <defs
     id="defs7654">
    <marker
       inkscape:isstock="true"
       style="overflow:visible"
       id="marker9229"
       refX="0"
       refY="0"
       orient="auto"
       inkscape:stockid="Arrow1Lend">
      <path
         transform="matrix(-0.8,0,0,-0.8,-10,0)"
         style="fill:#000000;fill-opacity:1;fill-rule:evenodd;stroke:#000000;stroke-width:1pt;stroke-opacity:1"
         d="M 0,0 5,-5 -12.5,0 5,5 0,0 Z"
         id="path9231"
         inkscape:connector-curvature="0" />
    </marker>
    <marker
       inkscape:stockid="Arrow1Lend"
       orient="auto"
       refY="0"
       refX="0"
       id="marker4525-0"
       style="overflow:visible"
       inkscape:isstock="true"
       inkscape:collect="always">
      <path
         inkscape:connector-curvature="0"
         id="path4527-0"
         d="M 0,0 5,-5 -12.5,0 5,5 0,0 Z"
         style="fill:#ececec;fill-opacity:1;fill-rule:evenodd;stroke:#000000;stroke-width:1pt;stroke-opacity:1"
         transform="matrix(-0.8,0,0,-0.8,-10,0)" />
    </marker>
    <marker
       inkscape:stockid="Arrow1Lend"
       orient="auto"
       refY="0"
       refX="0"
       id="marker4525-6-2"
       style="overflow:visible"
       inkscape:isstock="true">
      <path
         inkscape:connector-curvature="0"
         id="path4527-6-7"
         d="M 0,0 5,-5 -12.5,0 5,5 0,0 Z"
         style="fill:#ececec;fill-opacity:1;fill-rule:evenodd;stroke:#000000;stroke-width:1pt;stroke-opacity:1"
         transform="matrix(-0.8,0,0,-0.8,-10,0)" />
    </marker>
    <marker
       inkscape:stockid="Arrow1Lend"
       orient="auto"
       refY="0"
       refX="0"
       id="marker17105-0"
       style="overflow:visible"
       inkscape:isstock="true">
      <path
         inkscape:connector-curvature="0"
         id="path17107-3"
         d="M 0,0 5,-5 -12.5,0 5,5 0,0 Z"
         style="fill:#000000;fill-opacity:1;fill-rule:evenodd;stroke:#000000;stroke-width:1pt;stroke-opacity:1"
         transform="matrix(-0.8,0,0,-0.8,-10,0)" />
    </marker>
  </defs>
  <sodipodi:namedview
     id="base"
     pagecolor="#ffffff"
     bordercolor="#666666"
     borderopacity="1.0"
     inkscape:pageopacity="0.0"
     inkscape:pageshadow="2"
     inkscape:zoom="2"
     inkscape:cx="474.69964"
     inkscape:cy="215.1488"
     inkscape:document-units="px"
     inkscape:current-layer="layer1"
     showgrid="false"
     inkscape:window-width="1920"
     inkscape:window-height="1018"
     inkscape:window-x="-8"
     inkscape:window-y="-8"
     inkscape:window-maximized="1" />
  <metadata
     id="metadata7657">
    <rdf:RDF>
      <cc:Work
         rdf:about="">
        <dc:format>image/svg+xml</dc:format>
        <dc:type
           rdf:resource="http://purl.org/dc/dcmitype/StillImage" />
        <dc:title />
      </cc:Work>
    </rdf:RDF>
  </metadata>
  <g
     inkscape:label="Layer 1"
     inkscape:groupmode="layer"
     id="layer1">
    <rect
       style="fill:#ffffff;fill-opacity:1;stroke:#dbdbdb;stroke-width:1.20000005;stroke-linecap:round;stroke-miterlimit:4;stroke-dasharray:none;stroke-opacity:1"
       id="rect18585"
       width="760.84692"
       height="1062.0745"
       x="-7.0710678"
       y="-5.4695354"
       inkscape:export-xdpi="99.989998"
       inkscape:export-ydpi="99.989998" />
    <flowRoot
       xml:space="preserve"
       id="flowRoot8216"
       style="font-style:normal;font-weight:normal;font-size:15px;line-height:125%;font-family:sans-serif;text-align:center;letter-spacing:0px;word-spacing:0px;text-anchor:middle;fill:#000000;fill-opacity:1;stroke:none;stroke-width:1px;stroke-linecap:butt;stroke-linejoin:miter;stroke-opacity:1"
       transform="translate(78.157118,-356.17154)"><flowRegion
         id="flowRegion8218"><rect
           id="rect8220"
           width="105.71427"
           height="49.999992"
           x="80"
           y="393.79077"
           style="text-align:center;text-anchor:middle" /></flowRegion><flowPara
         id="flowPara8222">Read Design Brief</flowPara></flowRoot>    <text
       xml:space="preserve"
       style="font-style:normal;font-weight:normal;font-size:15px;line-height:125%;font-family:sans-serif;letter-spacing:0px;word-spacing:0px;fill:#000000;fill-opacity:1;stroke:none;stroke-width:1px;stroke-linecap:butt;stroke-linejoin:miter;stroke-opacity:1"
       x="39.44458"
       y="130.53085"
       id="text4162"
       sodipodi:linespacing="125%"><tspan
         sodipodi:role="line"
         id="tspan4164"
         x="39.44458"
         y="130.53085">Mindmapping</tspan></text>
    <flowRoot
       xml:space="preserve"
       id="flowRoot4178"
       style="font-style:normal;font-weight:normal;font-size:15px;line-height:125%;font-family:sans-serif;letter-spacing:0px;word-spacing:0px;fill:#000000;fill-opacity:1;stroke:none;stroke-width:1px;stroke-linecap:butt;stroke-linejoin:miter;stroke-opacity:1"
       transform="translate(-12.382891,93.142783)"><flowRegion
         id="flowRegion4180"><rect
           id="rect4182"
           width="107.14288"
           height="24.285723"
           x="175.71428"
           y="89.505058" /></flowRegion><flowPara
         id="flowPara4184">Brainstorming</flowPara></flowRoot>    <flowRoot
       xml:space="preserve"
       id="flowRoot4178-3"
       style="font-style:normal;font-weight:normal;font-size:16.25px;line-height:125%;font-family:sans-serif;letter-spacing:0px;word-spacing:0px;fill:#000000;fill-opacity:1;stroke:none;stroke-width:1px;stroke-linecap:butt;stroke-linejoin:miter;stroke-opacity:1"
       transform="translate(119.563,23.757597)"><flowRegion
         id="flowRegion4180-0"><rect
           id="rect4182-0"
           width="96.299408"
           height="24.257008"
           x="175.71428"
           y="89.505058"
           style="font-size:16.25px" /></flowRegion><flowPara
         id="flowPara4184-2">Discussion</flowPara></flowRoot>    <circle
       style="fill:#ececec;fill-opacity:1;stroke:#000000;stroke-width:1.2;stroke-miterlimit:4;stroke-dasharray:none;stroke-opacity:1"
       id="path8312"
       cx="213.57143"
       cy="130.21936"
       r="37.857143" />
    <rect
       style="fill:#ffffff;fill-opacity:1;stroke:none;stroke-width:1;stroke-miterlimit:4;stroke-dasharray:none;stroke-opacity:1"
       id="rect8314"
       width="107.14286"
       height="14.285714"
       x="160.71428"
       y="125.21935" />
    <path
       style="fill:none;fill-rule:evenodd;stroke:#000000;stroke-width:1px;stroke-linecap:butt;stroke-linejoin:miter;stroke-opacity:1;marker-end:url(#marker9229)"
       d="m 262.85714,131.64792 -108.57142,0"
       id="path9221"
       inkscape:connector-curvature="0"
       sodipodi:nodetypes="cc" />
    <flowRoot
       xml:space="preserve"
       id="flowRoot4178-3-1"
       style="font-style:normal;font-weight:normal;font-size:15px;line-height:125%;font-family:sans-serif;letter-spacing:0px;word-spacing:0px;fill:#000000;fill-opacity:1;stroke:none;stroke-width:1px;stroke-linecap:butt;stroke-linejoin:miter;stroke-opacity:1"
       transform="translate(-127.40505,146.82859)"><flowRegion
         id="flowRegion4180-0-0"><rect
           id="rect4182-0-4"
           width="83.571472"
           height="21.428577"
           x="175.71428"
           y="89.505058" /></flowRegion><flowPara
         id="flowPara4184-2-2">Research</flowPara></flowRoot>    <flowRoot
       xml:space="preserve"
       id="flowRoot4178-3-1-5"
       style="font-style:normal;font-weight:normal;font-size:15px;line-height:125%;font-family:sans-serif;letter-spacing:0px;word-spacing:0px;fill:#000000;fill-opacity:1;stroke:none;stroke-width:1px;stroke-linecap:butt;stroke-linejoin:miter;stroke-opacity:1"
       transform="translate(-22.738484,197.59031)"><flowRegion
         id="flowRegion4180-0-0-5"><rect
           id="rect4182-0-4-7"
           width="120.71435"
           height="22.142866"
           x="175.71428"
           y="89.505058" /></flowRegion><flowPara
         id="flowPara4184-2-2-6">Science Fiction</flowPara></flowRoot>    <flowRoot
       xml:space="preserve"
       id="flowRoot4178-3-1-5-8"
       style="font-style:normal;font-weight:normal;font-size:15px;line-height:125%;font-family:sans-serif;text-align:center;letter-spacing:0px;word-spacing:0px;text-anchor:middle;fill:#000000;fill-opacity:1;stroke:none;stroke-width:1px;stroke-linecap:butt;stroke-linejoin:miter;stroke-opacity:1"
       transform="translate(-41.494381,259.73822)"><flowRegion
         id="flowRegion4180-0-0-5-3"><rect
           id="rect4182-0-4-7-8"
           width="182.1429"
           height="41.428577"
           x="175.71428"
           y="89.505058"
           style="text-align:center;text-anchor:middle" /></flowRegion><flowPara
         id="flowPara4184-2-2-6-7">Online videos, tutorials, and information</flowPara></flowRoot>    <flowRoot
       xml:space="preserve"
       id="flowRoot7308"
       style="font-style:normal;font-weight:normal;font-size:15px;line-height:125%;font-family:sans-serif;letter-spacing:0px;word-spacing:0px;fill:#000000;fill-opacity:1;stroke:none;stroke-width:1px;stroke-linecap:butt;stroke-linejoin:miter;stroke-opacity:1"
       transform="translate(29.005301,-107.12455)"><flowRegion
         id="flowRegion7310"><rect
           id="rect7312"
           width="128.57143"
           height="74.285713"
           x="430"
           y="173.07649" /></flowRegion><flowPara
         id="flowPara7314">Play-Doh Prototype</flowPara></flowRoot>    <flowRoot
       xml:space="preserve"
       id="flowRoot9586"
       style="font-style:normal;font-weight:normal;font-size:15px;line-height:125%;font-family:sans-serif;text-align:center;letter-spacing:0px;word-spacing:0px;text-anchor:middle;fill:#000000;fill-opacity:1;stroke:none;stroke-width:1px;stroke-linecap:butt;stroke-linejoin:miter;stroke-opacity:1"
       transform="translate(-91.568745,99.159616)"><flowRegion
         id="flowRegion9588"><rect
           id="rect9590"
           width="100.00001"
           height="62.857136"
           x="510"
           y="90.933632"
           style="text-align:center;text-anchor:middle" /></flowRegion><flowPara
         id="flowPara9592">Determined Interaction Features</flowPara></flowRoot>    <flowRoot
       xml:space="preserve"
       id="flowRoot10494"
       style="font-style:normal;font-weight:normal;font-size:15px;line-height:125%;font-family:sans-serif;text-align:center;letter-spacing:0px;word-spacing:0px;text-anchor:middle;fill:#000000;fill-opacity:1;stroke:none;stroke-width:1px;stroke-linecap:butt;stroke-linejoin:miter;stroke-opacity:1"
       transform="translate(277.85338,-32.960868)"><flowRegion
         id="flowRegion10496"><rect
           id="rect10498"
           width="139.99998"
           height="59.999992"
           x="272.85715"
           y="302.36221"
           style="text-align:center;text-anchor:middle" /></flowRegion><flowPara
         id="flowPara10500">Developed a User Journey for using these features</flowPara></flowRoot>    <flowRoot
       xml:space="preserve"
       id="flowRoot10826"
       style="font-style:normal;font-weight:normal;font-size:15px;line-height:125%;font-family:sans-serif;text-align:center;letter-spacing:0px;word-spacing:0px;text-anchor:middle;fill:#000000;fill-opacity:1;stroke:none;stroke-width:1px;stroke-linecap:butt;stroke-linejoin:miter;stroke-opacity:1"
       transform="translate(379.5783,57.071319)"><flowRegion
         id="flowRegion10828"><rect
           id="rect10830"
           width="97.027992"
           height="69.885147"
           x="72.85714"
           y="313.79077"
           style="text-align:center;text-anchor:middle" /></flowRegion><flowPara
         id="flowPara10832"
         style="font-size:16.25px">Discussed Possible Prototypes</flowPara></flowRoot>    <flowRoot
       xml:space="preserve"
       id="flowRoot10834-3"
       style="font-style:normal;font-weight:normal;font-size:15px;line-height:125%;font-family:sans-serif;text-align:center;letter-spacing:0px;word-spacing:0px;text-anchor:middle;fill:#000000;fill-opacity:1;stroke:none;stroke-width:1px;stroke-linecap:butt;stroke-linejoin:miter;stroke-opacity:1"
       transform="translate(165.45501,108.89001)"><flowRegion
         id="flowRegion10836-7"><rect
           id="rect10838-8"
           width="110"
           height="45.714298"
           x="198.57143"
           y="402.36221"
           style="text-align:center;text-anchor:middle" /></flowRegion><flowPara
         id="flowPara10840-6">360 VR Environment</flowPara></flowRoot>    <flowRoot
       xml:space="preserve"
       id="flowRoot10834-39"
       style="font-style:normal;font-weight:normal;font-size:15px;line-height:125%;font-family:sans-serif;text-align:center;letter-spacing:0px;word-spacing:0px;text-anchor:middle;fill:#000000;fill-opacity:1;stroke:none;stroke-width:1px;stroke-linecap:butt;stroke-linejoin:miter;stroke-opacity:1"
       transform="translate(298.91866,113.45846)"><flowRegion
         id="flowRegion10836-6"><rect
           id="rect10838-0"
           width="110"
           height="45.714298"
           x="198.57143"
           y="402.36221"
           style="text-align:center;text-anchor:middle;stroke:none;stroke-opacity:1" /></flowRegion><flowPara
         id="flowPara10840-8">2D Axure Prototype</flowPara><flowPara
         id="flowPara10874-5" /></flowRoot>    <flowRoot
       xml:space="preserve"
       id="flowRoot10834"
       style="font-style:normal;font-weight:normal;font-size:15px;line-height:125%;font-family:sans-serif;text-align:center;letter-spacing:0px;word-spacing:0px;text-anchor:middle;fill:#000000;fill-opacity:1;stroke:none;stroke-width:1px;stroke-linecap:butt;stroke-linejoin:miter;stroke-opacity:1"
       transform="translate(-38.395232,37.529385)"><flowRegion
         id="flowRegion10836"><rect
           id="rect10838"
           width="164.28569"
           height="45.714287"
           x="198.57143"
           y="402.36221"
           style="text-align:center;text-anchor:middle" /></flowRegion><flowPara
         id="flowPara10840">Cardboard sculptures Prototype</flowPara><flowPara
         id="flowPara10874" /></flowRoot>    <flowRoot
       xml:space="preserve"
       id="flowRoot10842"
       style="font-style:normal;font-weight:normal;font-size:15px;line-height:125%;font-family:sans-serif;text-align:center;letter-spacing:0px;word-spacing:0px;text-anchor:middle;fill:#000000;fill-opacity:1;stroke:none;stroke-width:1px;stroke-linecap:butt;stroke-linejoin:miter;stroke-opacity:1"
       transform="translate(416.21585,-7.0623053)"><flowRegion
         id="flowRegion10844"><rect
           id="rect10846"
           width="78.571434"
           height="28.571445"
           x="204.28572"
           y="479.50507"
           style="text-align:center;text-anchor:middle" /></flowRegion><flowPara
         id="flowPara10848">Rejected</flowPara></flowRoot>    <flowRoot
       xml:space="preserve"
       id="flowRoot15959"
       style="font-style:normal;font-weight:normal;font-size:15px;line-height:125%;font-family:sans-serif;text-align:center;letter-spacing:0px;word-spacing:0px;text-anchor:middle;fill:#000000;fill-opacity:1;stroke:none;stroke-width:1px;stroke-linecap:butt;stroke-linejoin:miter;stroke-opacity:1"
       transform="translate(-68.46214,-72.430408)"><flowRegion
         id="flowRegion15961"><rect
           id="rect15963"
           width="152.53305"
           height="46.46701"
           x="135.36044"
           y="592.7428"
           style="text-align:center;text-anchor:middle" /></flowRegion><flowPara
         id="flowPara15965">Constructed the Prototype</flowPara></flowRoot>    <flowRoot
       xml:space="preserve"
       id="flowRoot15967"
       style="font-style:normal;font-weight:normal;font-size:15px;line-height:125%;font-family:sans-serif;text-align:center;letter-spacing:0px;word-spacing:0px;text-anchor:middle;fill:#000000;fill-opacity:1;stroke:none;stroke-width:1px;stroke-linecap:butt;stroke-linejoin:miter;stroke-opacity:1"
       transform="translate(-115.58758,-10.93005)"><flowRegion
         id="flowRegion15969"><rect
           id="rect15971"
           width="139.40106"
           height="40.406078"
           x="328.29959"
           y="604.86462"
           style="text-align:center;text-anchor:middle" /></flowRegion><flowPara
         id="flowPara15973">Mock tested using our prototype</flowPara></flowRoot>    <flowRoot
       xml:space="preserve"
       id="flowRoot15975"
       style="font-style:normal;font-weight:normal;font-size:15px;line-height:125%;font-family:sans-serif;letter-spacing:0px;word-spacing:0px;fill:#000000;fill-opacity:1;stroke:none;stroke-width:1px;stroke-linecap:butt;stroke-linejoin:miter;stroke-opacity:1"
       transform="translate(-407.86727,36.289696)"><flowRegion
         id="flowRegion15977"><rect
           id="rect15979"
           width="89.903557"
           height="23.233494"
           x="509.11688"
           y="602.8443" /></flowRegion><flowPara
         id="flowPara15981">Discussion</flowPara></flowRoot>    <flowRoot
       transform="translate(128.77661,-181.97911)"
       xml:space="preserve"
       id="flowRoot18722"
       style="font-style:normal;font-weight:normal;font-size:15px;line-height:125%;font-family:sans-serif;letter-spacing:0px;word-spacing:0px;fill:#000000;fill-opacity:1;stroke:none;stroke-width:1px;stroke-linecap:butt;stroke-linejoin:miter;stroke-opacity:1"><flowRegion
         id="flowRegion18724"><rect
           id="rect18726"
           width="119.198"
           height="39.901024"
           x="289.40869"
           y="803.35962" /></flowRegion><flowPara
         id="flowPara18728">Wrote a User Testing Script</flowPara></flowRoot>    <flowRoot
       xml:space="preserve"
       id="flowRoot18940"
       style="font-style:normal;font-weight:normal;font-size:15px;line-height:125%;font-family:sans-serif;text-align:center;letter-spacing:0px;word-spacing:0px;text-anchor:middle;fill:#000000;fill-opacity:1;stroke:none;stroke-width:1px;stroke-linecap:butt;stroke-linejoin:miter;stroke-opacity:1"
       transform="translate(354.91712,-189.84023)"><flowRegion
         id="flowRegion18942"><rect
           id="rect18944"
           width="135.46147"
           height="64.851776"
           x="171.22086"
           y="865.98907"
           style="text-align:center;text-anchor:middle" /></flowRegion><flowPara
         id="flowPara18946"
         style="font-size:16.25px">Tested Prototype on Relevant Users </flowPara></flowRoot>    <flowRoot
       xml:space="preserve"
       id="flowRoot18940-7"
       style="font-style:normal;font-weight:normal;font-size:15px;line-height:125%;font-family:sans-serif;text-align:center;letter-spacing:0px;word-spacing:0px;text-anchor:middle;fill:#000000;fill-opacity:1;stroke:none;stroke-width:1px;stroke-linecap:butt;stroke-linejoin:miter;stroke-opacity:1"
       transform="translate(148.90842,-130.06996)"><flowRegion
         id="flowRegion18942-2"><rect
           id="rect18944-4"
           width="143.94675"
           height="39.395931"
           x="171.22086"
           y="865.98907"
           style="text-align:center;text-anchor:middle" /></flowRegion><flowPara
         id="flowPara18946-5">Developed User Personas</flowPara></flowRoot>    <flowRoot
       xml:space="preserve"
       id="flowRoot18015"
       style="font-style:normal;font-weight:normal;font-size:15px;line-height:125%;font-family:sans-serif;text-align:center;letter-spacing:0px;word-spacing:0px;text-anchor:middle;fill:#000000;fill-opacity:1;stroke:none;stroke-width:1px;stroke-linecap:butt;stroke-linejoin:miter;stroke-opacity:1"
       transform="translate(38.531734,-378.55423)"><flowRegion
         id="flowRegion18017"><rect
           id="rect18019"
           width="127.14285"
           height="41.428589"
           x="127.14286"
           y="1134.505"
           style="text-align:center;text-anchor:middle" /></flowRegion><flowPara
         id="flowPara18021">Developed User Journeys</flowPara></flowRoot>    <flowRoot
       xml:space="preserve"
       id="flowRoot18948"
       style="font-style:normal;font-weight:normal;font-size:15px;line-height:125%;font-family:sans-serif;text-align:center;letter-spacing:0px;word-spacing:0px;text-anchor:middle;fill:#000000;fill-opacity:1;stroke:none;stroke-width:1px;stroke-linecap:butt;stroke-linejoin:miter;stroke-opacity:1"
       transform="translate(152.3321,-146.94324)"><flowRegion
         id="flowRegion18950"><rect
           id="rect18952"
           width="155.05841"
           height="36.870567"
           x="269.71072"
           y="940.74036"
           style="text-align:center;text-anchor:middle" /></flowRegion><flowPara
         id="flowPara18954">Acted on User Feedback</flowPara></flowRoot>    <flowRoot
       xml:space="preserve"
       id="flowRoot18948-1"
       style="font-style:normal;font-weight:normal;font-size:15px;line-height:125%;font-family:sans-serif;text-align:center;letter-spacing:0px;word-spacing:0px;text-anchor:middle;fill:#000000;fill-opacity:1;stroke:none;stroke-width:1px;stroke-linecap:butt;stroke-linejoin:miter;stroke-opacity:1"
       transform="translate(-55.875514,-100.46441)"><flowRegion
         id="flowRegion18950-4"><rect
           id="rect18952-0"
           width="262.91556"
           height="44.370544"
           x="269.71072"
           y="940.74036"
           style="text-align:center;text-anchor:middle" /></flowRegion><flowPara
         id="flowPara18954-6">Presented work and demo to Client and received feedback</flowPara></flowRoot>    <flowRoot
       xml:space="preserve"
       id="flowRoot13091"
       style="font-style:normal;font-weight:normal;font-size:15px;line-height:125%;font-family:sans-serif;text-align:center;letter-spacing:0px;word-spacing:0px;text-anchor:middle;fill:#000000;fill-opacity:1;stroke:none;stroke-width:1px;stroke-linecap:butt;stroke-linejoin:miter;stroke-opacity:1"
       transform="translate(-298.19406,-107.12454)"><flowRegion
         id="flowRegion13093"><rect
           id="rect13095"
           width="252.85718"
           height="39.285652"
           x="628.57141"
           y="1023.0765"
           style="text-align:center;text-anchor:middle" /></flowRegion><flowPara
         id="flowPara13097">Witnessed alternative ideas and communication techniques.</flowPara></flowRoot>    <flowRoot
       xml:space="preserve"
       id="flowRoot18948-8"
       style="font-style:normal;font-weight:normal;font-size:15px;line-height:125%;font-family:sans-serif;text-align:center;letter-spacing:0px;word-spacing:0px;text-anchor:middle;fill:#000000;fill-opacity:1;stroke:none;stroke-width:1px;stroke-linecap:butt;stroke-linejoin:miter;stroke-opacity:1"
       transform="translate(-137.05217,-24.828893)"><flowRegion
         id="flowRegion18950-41"><rect
           id="rect18952-6"
           width="141.79005"
           height="41.365467"
           x="269.71072"
           y="940.74036"
           style="text-align:center;text-anchor:middle" /></flowRegion><flowPara
         id="flowPara18954-0">Prototyped using google tiltbrush.</flowPara></flowRoot>    <flowRoot
       xml:space="preserve"
       id="flowRoot18940-7-5"
       style="font-style:normal;font-weight:normal;font-size:15px;line-height:125%;font-family:sans-serif;text-align:center;letter-spacing:0px;word-spacing:0px;text-anchor:middle;fill:#000000;fill-opacity:1;stroke:none;stroke-width:1px;stroke-linecap:butt;stroke-linejoin:miter;stroke-opacity:1"
       transform="translate(429.79078,-53.06188)"><flowRegion
         id="flowRegion18942-2-1"><rect
           id="rect18944-4-4"
           width="143.94675"
           height="39.395931"
           x="171.22086"
           y="865.98907"
           style="text-align:center;text-anchor:middle" /></flowRegion><flowPara
         id="flowPara18946-5-8">Wrote System Diagram</flowPara></flowRoot>    <flowRoot
       transform="translate(-210.62519,-177.96319)"
       xml:space="preserve"
       id="flowRoot6016"
       style="font-style:normal;font-weight:normal;font-size:15px;line-height:125%;font-family:sans-serif;letter-spacing:0px;word-spacing:0px;fill:#000000;fill-opacity:1;stroke:none;stroke-width:1px;stroke-linecap:butt;stroke-linejoin:miter;stroke-opacity:1"><flowRegion
         id="flowRegion6018"><rect
           id="rect6020"
           width="132.85713"
           height="26.428606"
           x="815.71429"
           y="1045.2194" /></flowRegion><flowPara
         id="flowPara6022">Project Narrative</flowPara></flowRoot>    <flowRoot
       xml:space="preserve"
       id="flowRoot6024"
       style="font-style:normal;font-weight:normal;font-size:15px;line-height:125%;font-family:sans-serif;text-align:center;letter-spacing:0px;word-spacing:0px;text-anchor:middle;fill:#000000;fill-opacity:1;stroke:none;stroke-width:1px;stroke-linecap:butt;stroke-linejoin:miter;stroke-opacity:1"
       transform="translate(-193.38131,-193.80825)"><flowRegion
         id="flowRegion6026"><rect
           id="rect6028"
           width="100.89993"
           height="38.693932"
           x="813.57141"
           y="1098.0765"
           style="text-align:center;text-anchor:middle" /></flowRegion><flowPara
         id="flowPara6030">Comparative Analysis</flowPara></flowRoot>    <flowRoot
       xml:space="preserve"
       id="flowRoot5994"
       style="font-style:normal;font-weight:normal;font-size:15px;line-height:125%;font-family:sans-serif;text-align:center;letter-spacing:0px;word-spacing:0px;text-anchor:middle;fill:#000000;fill-opacity:1;stroke:none;stroke-width:1px;stroke-linecap:butt;stroke-linejoin:miter;stroke-opacity:1"
       transform="translate(-441.40834,-187.12151)"><flowRegion
         id="flowRegion5996"><rect
           id="rect5998"
           width="219.28572"
           height="42.857124"
           x="452.85715"
           y="1165.9336"
           style="text-align:center;text-anchor:middle" /></flowRegion><flowPara
         id="flowPara6000">Wrote the final document to communicate our work.</flowPara></flowRoot>    <path
       style="fill:#f9f9f9;fill-rule:evenodd;stroke:#000000;stroke-width:1px;stroke-linecap:butt;stroke-linejoin:miter;stroke-opacity:1"
       d="m 188.65982,0.491691 c 0,0 5.51926,15.674132 -0.0884,21.870513 -5.60765,6.196381 -14.09939,-3.734318 -28.57143,2.857143 -14.47204,6.591461 -30.0601,36.165147 -48.57143,45.714286 -18.511331,9.549139 -42.671022,6.61818 -57.142856,11.428571 -14.471834,4.810391 -23.912706,6.738573 -30,14.285715 -6.087294,7.547141 -5.007487,16.103411 -5.714285,24.285711 -0.706798,8.1823 -5.344472,15.54571 1.428571,24.28572 6.773043,8.74001 30.065423,8.80454 40,12.85714 9.934577,4.0526 17.27175,-1.40515 20,10 2.72825,11.40515 -19.768203,25.69647 -28.571429,38.57143 -8.803226,12.87496 -24.619983,22.59065 -24.285714,38.57143 0.334269,15.98078 11.664975,16.90593 28.571429,41.42857 16.906454,24.52264 25.457906,80.8155 72.857144,105.71428 47.39924,24.89878 152.75878,13.57463 192.85714,0 40.09836,-13.57463 35.66105,-16.06822 48.57143,-37.14285 12.91038,-21.07463 17.62068,-55.51287 15.71429,-85.71429 -1.90639,-30.20142 -27.64983,-70.87547 -28.57143,-90 -0.9216,-19.12453 -0.99228,-12.90405 4.28571,-20 5.27799,-7.09595 19.06707,-14.41486 28.57143,-15.71428 9.50436,-1.29942 18.43536,0.37165 24.28571,5.71428 5.85035,5.34263 9.71147,14.14066 7.14286,21.42857 -2.56861,7.28791 -15.71586,6.57385 -20,12.85715 -4.28414,6.2833 -5.35928,9.38935 -4.28571,21.42857 1.07357,12.03922 5.04519,36.24616 18.57143,47.14285 13.52624,10.89669 36.66698,5.43385 52.85714,8.57143 16.19016,3.13758 33.4152,2.43065 44.28571,10 10.87051,7.56935 13.03144,18.07362 18.57143,28.57143 5.53999,10.49781 16.02115,23.50801 14.28572,34.28572 -1.73543,10.77771 -8.64119,16.89414 -18.57143,21.42857 -9.93024,4.53443 -24.99767,-0.24281 -37.14286,0 -12.14519,0.24281 -23.74211,-6.52208 -35.71429,1.42857 -11.97218,7.95065 -12.72878,36.34515 -21.42857,45.71428 -8.69979,9.36913 -11.92828,8.8071 -22.85714,12.85715 -10.92886,4.05005 -21.58842,6.82872 -42.85714,8.57143 -21.26872,1.74271 -47.84474,-2.62735 -84.28572,-2.85715 -36.44098,-0.2298 -110.09465,-11.52759 -134.28571,2.85715 -24.19106,14.38474 -11.42636,20.23865 -17.14286,30 -5.7165,9.76135 -9.31965,21.47995 -17.14286,28.57142 -7.82321,7.09147 -17.915679,6.73053 -27.142853,12.85715 C 77.915683,501.34597 64.472462,508.32478 60,519.50506 c -4.472462,11.18028 -4.258772,25.34758 2.857143,35.71429 7.115915,10.36671 31.815323,6.54478 35.714286,17.14285 3.898961,10.59807 -5.525772,12.8334 -11.428572,25.71429 -5.9028,12.88089 -22.184604,36.30162 -24.285714,51.42857 -2.10111,15.12695 0.848143,25.72428 5.714286,34.28572 4.866143,8.56144 -0.661302,9.30337 18.571428,15.71428 19.232733,6.41091 71.321383,3.62042 97.142853,-5.71428 17.22617,-6.22742 20.64614,-25.39468 23.53133,-39.34296 1.8425,-8.90746 -8.32442,-12.24484 -6.40763,-18.04889 2.17068,-6.57287 6.60769,0.4112 14.16202,3.39185 12.98384,5.12293 61.54623,6.31663 78.71428,4 17.16805,-2.31663 34.9805,1.85272 47.14286,-4.28572 12.16236,-6.13844 14.27062,-21.53166 22.85714,-25.71428 8.58652,-4.18262 16.27396,-2.64084 22.85715,-1.42858 6.58319,1.21226 11.91646,1.63065 15.71428,7.14286 3.79782,5.51221 0.39334,16.17482 1.42857,22.85714 1.03523,6.68232 -0.56442,9.33131 4.28572,17.14286 4.85014,7.81155 14.34542,18.62776 28.57143,24.28572 14.22601,5.65796 39.72721,6.33737 52.03571,2.35714 10.85729,-3.51095 24.03286,-9.89996 24.03286,-9.89996 3.4137,-1.87417 10.15651,-5.20312 13.01593,-5.4261 5.75305,-0.44861 7.04231,3.70748 7.37263,4.936 1.0094,3.75409 -17.1101,9.97075 -24.87232,16.57811 -3.95965,3.37054 -0.78545,8.69219 -0.15624,10.02623 3.58588,7.60276 6.71222,19.52107 1.42857,27.14286 -5.28365,7.62179 -22.59394,13.70937 -27.14286,8.57143 -4.54892,-5.13794 -19.67051,-5.49915 -27,-7.82143 -7.32949,-2.32228 -27.99625,-3.04409 -57.28571,-3.60714 -29.28946,-0.56305 -78.24001,-5.47408 -101.42857,0 C 273.9543,732.122 273.0756,741.3858 260,745.21935 c -13.0756,3.83355 -23.31896,3.39463 -40,4.28571 -16.68104,0.89108 -47.15581,-7.55756 -60,0 -12.84419,7.55756 -6.47395,14.69932 -14.28571,25.71429 -7.81176,11.01497 -19.58828,25.86093 -34.28572,38.57143 -14.697444,12.7105 -38.539487,25.75907 -54.285713,35.71428 -15.746226,9.95521 -32.189078,12.59197 -40,24.28572 -7.8109223,11.69375 -4.454341,23.55303 -5.714286,37.14285 -1.259945,13.58982 -1.194346,29.75996 -1.428571,44.28572 -0.2342254,14.52576 0,30.47618 0,42.85714 0,12.38091 -3.5926514,25.23791 0,31.42861 3.592651,6.1907 6.589407,1.7415 10,5.7142 3.410593,3.9727 7.017857,17.1965 7.017857,17.1965 l -27.37499986,-0.054 0,-1052.14285408 79.28571486,-0.35714286 z"
       id="path18349"
       inkscape:connector-curvature="0"
       sodipodi:nodetypes="czzzzzzzzzzzzzzzzzzzzzzzzzzzzzzzzzzzzzzzzzzzzzzsssszzzzzzzzsssssszzzzzzzzzzzzzzzzzccccc" />
    <path
       style="fill:#f9f9f9;fill-rule:evenodd;stroke:#000000;stroke-width:1px;stroke-linecap:butt;stroke-linejoin:miter;stroke-opacity:1"
       d="m 223.78063,0.52784076 0.50508,13.26293524 c 0,0 4.032,5.854297 7.14286,7.142857 2.63966,1.093383 5.71722,0.12947 8.57143,0 5.25429,-0.23834 10.64662,-2.836791 15.71429,-1.428572 8.53428,2.371531 14.97417,9.648082 21.42857,15.714286 2.71008,2.547085 5.74348,5.125567 7.14285,8.571429 4.6722,11.505021 0.5838,24.935201 2.85715,37.142857 0.91018,4.887549 0.42383,11.15483 4.28571,14.285714 4.4542,3.611086 12.42551,4.688385 17.14286,1.428572 5.70404,-3.941641 4.95471,-13.108295 5.71428,-20.000001 0.88838,-8.060423 -4.20189,-16.665456 -1.42857,-24.285714 4.0321,-11.079011 13.86023,-20.208703 24.28572,-25.714286 18.76059,-9.907254 41.76682,-7.695242 62.85714,-10 23.71118,-2.591167 47.58134,-4.779641 71.42857,-4.285714 28.23409,0.584788 62.12776,-8.9365824 84.28572,8.571429 9.09852,7.189155 10.13207,21.333852 11.42857,32.857143 1.44634,12.855155 1.31813,26.911931 -4.28572,38.571428 -4.08414,8.497566 -11.28958,16.392026 -20,19.999996 -10.11868,4.19129 -21.90678,0.21051 -32.85714,0 -12.38782,-0.23814 -24.89267,-3.28533 -37.14286,-1.42857 -8.4877,1.28648 -16.28852,5.45035 -24.28571,8.57143 -6.75678,2.63698 -18.62838,1.44918 -20,8.57143 -0.63676,3.30642 5.28926,4.3318 7.14286,7.14286 2.82332,4.28167 4.28251,9.36089 5.71428,14.28571 2.16406,7.44362 -0.80935,17.01497 4.28572,22.85714 2.96926,3.40465 8.39793,3.56209 12.85714,4.28572 8.46075,1.37299 17.14553,-0.21408 25.71428,0 9.53273,0.23817 19.65491,-1.95157 28.57143,1.42857 11.40447,4.32329 22.46526,12.29932 28.57143,22.85714 3.13574,5.42182 0.65256,12.70893 2.85714,18.57143 2.18538,5.81144 5.34963,11.60056 10,15.71429 8.29587,7.33855 19.19642,11.84474 30,14.28571 13.93447,3.14836 28.57143,0 42.85715,0 20.47619,0 42.72357,-8.33051 61.42857,0 5.85233,2.60641 9.5474,8.8004 12.85714,14.28572 4.98135,8.25571 9.84938,17.50191 10,27.14285 0.0941,6.02265 -3.64249,11.48699 -5.71428,17.14286 -2.6461,7.2237 -3.36236,15.76736 -8.57143,21.42857 -8.65179,9.40276 -22.31874,12.66438 -34.28572,17.14286 -14.27842,5.3435 -29.55946,7.48345 -44.28571,11.42857 -8.59296,2.30203 -17.41167,3.94837 -25.71429,7.14286 -4.96887,1.91181 -9.3239,5.21279 -14.28571,7.14285 -6.46179,2.51353 -13.83897,2.53399 -20,5.71429 -2.70943,1.3986 -7.67822,2.71255 -7.14286,5.71429 0.52879,2.96491 5.55974,2.85714 8.57143,2.85714 4.51754,0 8.59112,-2.79938 12.85714,-4.28572 5.26335,-1.83382 10.45094,-3.88046 15.71429,-5.71428 5.68803,-1.98179 11.36835,-4.00074 17.14286,-5.71429 10.85123,-3.22003 21.68871,-6.73187 32.85714,-8.57143 6.59479,-1.08623 13.36868,-2.26332 20,-1.42857 10.45839,1.3165 21.42005,3.87664 30,10 8.29506,5.92004 14.10884,15.12383 18.57143,24.28572 5.81627,11.94103 8.07626,25.42927 10,38.57143 1.86345,12.73029 1.19043,25.70767 1.42857,38.57142 0.1939,10.4744 6.86402,23.5143 0,31.42858 -6.61854,7.63124 -20.00782,2.8034 -30,4.28571 -6.19551,0.91909 -13.25273,-0.4505 -18.57143,2.85714 -4.936,3.06965 -8.06897,8.8032 -10,14.28572 -2.3782,6.75213 -0.51278,14.32868 -1.42857,21.42857 -1.61288,12.50422 -2.20615,25.54175 -7.14286,37.14286 -3.87992,9.11769 -8.51941,19.40493 -17.14286,24.28571 -11.2199,6.35034 -25.68123,3.09382 -38.57142,2.85714 -17.24545,-0.31665 -34.58179,-2.0141 -51.42858,-5.71428 -10.29552,-2.26127 -19.59518,-8.31153 -30,-10 -10.34092,-1.6781 -20.95782,0.33742 -31.42857,0 -14.78492,-0.47644 -29.57718,-1.28239 -44.28571,-2.85715 -9.57563,-1.02521 -19.26708,-1.8012 -28.57143,-4.28571 -11.3629,-3.0342 -24.00229,-5.11676 -32.85714,-12.85714 -7.38243,-6.45328 -14.27048,-15.13046 -21.78572,-21.42858 -15.73129,-13.18357 2.92414,-18.47174 1.80222,-33.14357 0.5585,-21.57379 3.90066,-25.73581 16.05493,-29.71357 l 19.64285,-6.42857 c 0,0 22.9249,-8.15454 28.57143,-10.35715 8.58738,-3.34977 42.05411,-9.90067 40.35715,-17.14286 -0.31169,-1.33017 -13.23985,0.54509 -24.99416,0.17265 -9.26207,-0.29348 -13.80753,-1.51457 -20.2813,-3.84647 -5.27265,-1.89924 -6.83144,-5.59828 -14.7219,-8.12016 -6.62426,-2.1172 -16.44608,4.68027 -18.41009,5.05381 -9.99094,1.90023 -17.61507,14.43527 -26.28935,19.74438 -4.16432,2.54878 -6.31268,7.77772 -10.6066,10.10153 -7.7576,4.19831 -17.05616,4.62267 -25.75889,6.06091 -10.34667,1.70992 -21.18438,0.31874 -31.31473,3.03046 -3.9302,1.05205 -7.34066,3.52343 -11.11167,5.05076 -11.59893,4.69779 -22.84876,12.19114 -35.35534,12.62691 -7.02704,0.24484 -21.14545,-0.40305 -24.24367,3.283 -3.63339,4.32276 4.25851,14.00847 5.05077,20.45558 0.65614,5.33942 -0.67542,10.44861 -2.02031,15.65737 -1.51299,5.85986 -8.92293,13.01187 -12.12183,18.94036 -4.53864,8.41139 -12.35048,7.23561 -17.30219,11.45523 -0.0596,0.0508 -3.21982,3.95338 -2.36967,6.11273 0.89668,2.27754 5.85897,2.93502 5.97615,2.91329 4.97961,-0.92362 18.93134,-2.33394 21.27186,-2.2985 5.96181,0.0902 13.38083,-0.68181 18.18274,-0.25254 10.23459,0.91493 20.60388,0.184 30.80966,-1.01016 11.77314,-1.37755 23.27935,-4.49843 34.85026,-7.07106 10.4834,-2.33084 16.51839,-4.24687 26.31473,-8.64758 7.70427,-3.46091 12.35577,-5.55227 19.00906,-2.29078 4.32363,2.11947 13.23615,11.2365 16.80059,14.47389 3.63349,3.30011 8.27522,5.30551 12.62691,7.57614 4.74362,2.47512 9.59995,4.79024 14.64721,6.566 7.55003,2.6563 15.43387,4.26518 23.23351,6.06091 12.54868,2.88911 25.1237,5.82263 37.88072,7.57615 13.21439,1.81639 26.61467,1.85052 39.90102,3.03045 9.94526,0.88321 19.98433,1.19996 29.7995,3.03046 12.52711,2.33627 24.54723,6.85777 36.87057,10.10153 2.74106,0.7215 7.03619,1.3443 7.77291,3.80588 0.66226,2.2128 -2.17471,6.19937 -1.00299,8.1879 1.51532,2.57165 4.35079,3.34071 6.57436,5.7758 0,0 3.41786,2.54394 8.09934,1.5493 2.52,-0.53541 3.03016,-5.8124 6.47364,-6.91618 7.48539,-2.39936 18.58705,-0.91156 22.08529,0.2242 8.6233,2.7997 17.21461,5.90978 25.25382,10.10153 11.4278,5.95861 21.81174,13.75842 32.32488,21.2132 5.87823,4.1682 13.87635,6.72401 17.17259,13.13199 4.7772,9.28701 1.10263,20.87146 1.01015,31.31472 -0.0597,6.7425 1.39819,13.90506 -1.01015,20.20306 -3.24942,8.49751 -10.08119,15.51421 -17.17259,21.2132 -4.10822,3.30156 -11.17098,2.71791 -14.14214,7.07107 -2.09663,3.07186 -1.9255,7.50691 -1.01015,11.11167 0.89639,3.53013 3.00794,7.10526 6.06091,9.09138 8.30594,5.40346 19.65213,2.76779 29.29443,5.05076 11.29829,2.67505 23.63953,3.71369 33.33503,10.10153 6.98428,4.60157 13.11985,11.40205 16.16244,19.19289 8.21506,21.03545 2.81843,45.09854 3.03046,67.68022 0.24351,25.93485 2.2783,52.20446 -2.0203,77.78175 -2.40035,14.28246 -3.10698,30.96398 -13.13199,41.41623 -5.45617,5.6887 -14.71736,5.6747 -22.22335,8.0812 -24.08039,7.7203 -56.51446,10.843 -71.93199,14.3399 -12.95739,2.939 -20.73174,4.5432 -20.73174,4.5432 l -26.36396,4.1967 c 0,0 -46.9577,3.1091 -63.45637,2.9822 -43.77716,-0.3367 -53.46914,-9.9751 -97.24698,-10.2066 -45.11111,-0.2386 -83.69089,0.5589 -128.81694,1.1773 -24.93422,0.3417 -44.30623,-5.8635 -65.54479,-2.4172 -14.75214,2.3938 -36.37574,12.6373 -51.18656,10.6384 -18.68975,-2.5224 -37.71011,-0.8418 -56.56854,-1.0102 -19.528837,-0.1744 -39.651814,-4.7744 -58.588847,0 -4.820728,1.2154 -10.582622,2.8029 -13.131983,7.0711 -2.244628,3.758 -0.25,12.257 -0.25,12.257 l 696.96926,0.2219 L 744.01786,-0.04851234 C 570.60541,0.25616342 397.18671,-1.220382 223.78063,0.52784076 Z"
       id="path18381"
       inkscape:connector-curvature="0"
       sodipodi:nodetypes="ccsssssssssssssssssssssssssssssssssssssssssssssssssssssssssssssssssssscsssssssssssssssssssssssssssssssssssssssssssssssssssssssssssssssssssscccc" />
    <path
       style="fill:#ececec;fill-rule:evenodd;stroke:#000000;stroke-width:1px;stroke-linecap:butt;stroke-linejoin:miter;stroke-opacity:1;marker-end:url(#marker4525-0)"
       d="m 239.40807,118.06062 c -25.09134,-17.4598 -37.26421,-6.9296 -51.42857,-0.7143"
       id="path13648"
       inkscape:connector-curvature="0"
       sodipodi:nodetypes="cc" />
    <path
       style="fill:#ececec;fill-rule:evenodd;stroke:#000000;stroke-width:1px;stroke-linecap:butt;stroke-linejoin:miter;stroke-opacity:1;marker-end:url(#marker4525-6-2)"
       d="m 186.99461,148.38423 c 26.12212,15.8762 37.62115,4.6141 51.37445,-2.4645"
       id="path13648-9"
       inkscape:connector-curvature="0"
       sodipodi:nodetypes="cc" />
    <path
       style="fill:#ececec;fill-rule:evenodd;stroke:#000000;stroke-width:1.2;stroke-linecap:butt;stroke-linejoin:miter;stroke-opacity:1;stroke-miterlimit:4;stroke-dasharray:none"
       d="m 131.42857,209.50506 c 4.76171,-3.04836 7.14518,0.6788 17.14286,1.42857 9.99768,0.74977 28.79137,2.63138 42.85714,2.85715 14.06577,0.22577 26.18876,-0.73049 41.42857,-1.42858 15.23981,-0.69809 37.86117,-0.64846 50,-2.85714 12.13883,-2.20868 17.20297,-2.03791 22.85715,-7.14286 5.65418,-5.10495 2.68424,-17.07981 8.57142,-20 5.88718,-2.92019 13.75949,-0.44012 17.14286,4.28572 3.38337,4.72584 1.47977,6.24257 -1.42857,17.14286 -2.90834,10.90029 -12.36331,34.56841 -21.42857,45.71428 -9.06526,11.14587 -18.26109,17.71701 -28.57143,21.42857 -10.31034,3.71156 -12.85082,1.18866 -30,1.42857 -17.14918,0.23991 -53.08494,-0.003 -72.85714,-1.42857 -19.7722,-1.42567 -37.42255,1.99291 -45.71429,-5.71428 -8.29174,-7.70719 -3.36376,-14.74532 -4.28571,-21.42857 -0.92195,-6.68325 -2.2273,-12.73461 -1.42857,-18.57143 0.79873,-5.83682 0.95257,-12.66593 5.71428,-15.71429 z"
       id="path18375"
       inkscape:connector-curvature="0"
       sodipodi:nodetypes="zzzzzzzzzzzzzzzzz" />
    <path
       style="fill:#ececec;fill-rule:evenodd;stroke:#000000;stroke-width:1.2;stroke-linecap:butt;stroke-linejoin:miter;stroke-opacity:1;stroke-miterlimit:4;stroke-dasharray:none"
       d="m 130,303.79078 c 6.33761,-1.41476 11.82174,6.67874 20,8.57142 8.17826,1.89268 17.13295,1.34703 28.57143,1.42858 11.43848,0.0815 25.71231,-1.17352 40,-1.42858 14.28769,-0.25506 33.55276,0.95421 45.71428,0 12.16152,-0.95421 18.06709,-3.57361 27.14286,-4.28571 9.07577,-0.7121 21.38345,-3.74289 27.14286,0 5.75941,3.74289 5.18833,8.11313 5.71428,12.85714 0.52595,4.74401 2.86119,9.14734 -2.85714,14.28572 -5.71833,5.13838 -15.44829,2.48757 -31.42857,2.85714 -15.98028,0.36957 -44.73869,-2.95083 -64.28571,-2.85714 -19.54702,0.0937 -38.07799,2.75352 -52.85715,2.85714 -14.77916,0.10362 -27.82978,1.71515 -35.71428,-1.42857 -7.8845,-3.14372 -8.35408,-6.60644 -11.42857,-10 -3.07449,-3.39356 -7.40421,-5.09173 -7.14286,-10 0.26135,-4.90827 5.09096,-11.44238 11.42857,-12.85714 z"
       id="path18377"
       inkscape:connector-curvature="0"
       sodipodi:nodetypes="zzzzzzzzzzzzzzzz" />
    <path
       style="fill:#f9f9f9;fill-rule:evenodd;stroke:#000000;stroke-width:1px;stroke-linecap:butt;stroke-linejoin:miter;stroke-opacity:1"
       d="m 380.83683,98.07649 c 8.9305,5.52514 19.12034,-6.52684 26.79624,-12.770485 6.5004,-5.287485 8.11036,-15.562993 15.2092,-20.014869 9.3248,-5.847834 22.26281,-3.096181 32.36694,-6.536255 10.10413,-3.440074 19.89353,-5.124596 32.77048,-4.964105 12.87696,0.160491 36.76462,9.954713 42.85714,2.857142 6.09253,-7.097571 0.44657,-9.622979 -2.85714,-12.857142 -3.3037,-3.234163 -3.81358,-1.820198 -14.28571,-2.857143 -10.47212,-1.036945 -28.40552,-2.192039 -48.57143,0 -20.1659,2.192039 -57.78361,8.242744 -71.42857,15.714285 -13.64495,7.471541 -11.45642,6.912685 -14.28572,14.285715 -2.82929,7.37303 -7.50192,21.617721 1.42857,27.142857 z"
       id="path18379"
       inkscape:connector-curvature="0"
       sodipodi:nodetypes="zaazzzzzzzzz" />
    <path
       style="fill:#f9f9f9;fill-rule:evenodd;stroke:#000000;stroke-width:1px;stroke-linecap:butt;stroke-linejoin:miter;stroke-opacity:1"
       d="m 486.89353,480.61586 c 1.67524,-6.28216 1.60545,-11.20155 4.04061,-15.15228 2.43516,-3.95073 4.87268,-7.16406 9.09137,-8.08122 4.21869,-0.91716 10.12405,0.86723 13.13198,4.04061 3.00793,3.17338 2.5086,7.88269 3.03046,12.12183 0.52186,4.23914 1.10832,9.13059 0,13.13198 -1.10832,4.00139 -4.28449,5.21241 -6.06091,10.10152 -1.77642,4.88911 -2.86354,12.74012 -3.03046,19.1929 -0.16692,6.45278 1.73699,13.79518 2.0203,19.1929 0.28331,5.39772 -0.76233,9.90269 0,13.13198 0.76233,3.22929 0.95023,3.6498 3.03046,6.06092 2.08023,2.41112 4.62419,4.0042 10.10153,7.07107 5.47734,3.06687 18.58847,6.67082 23.2335,10.10152 4.64503,3.4307 6.30764,3.26182 6.06092,7.07107 -0.24672,3.80925 -5.43352,7.81096 -10.10153,9.09137 -4.66801,1.28041 -9.24794,-0.66975 -15.15228,-3.03045 -5.90434,-2.3607 -14.56933,-8.22232 -19.1929,-12.12183 -4.62357,-3.89951 -6.53533,-5.008 -9.09138,-10.10153 -2.55605,-5.09353 -1.68375,-13.56008 -4.04061,-20.20305 -2.35686,-6.64297 -7.03412,-3.7747 -10.10152,-19.1929 -3.0674,-15.4182 1.35522,-36.14425 3.03046,-42.42641 z"
       id="path18383"
       inkscape:connector-curvature="0"
       sodipodi:nodetypes="zzzzzzzzzzzzzzzzzzzzz" />
    <path
       style="fill:#ececec;fill-rule:evenodd;stroke:#000000;stroke-width:1.2;stroke-linecap:butt;stroke-linejoin:miter;stroke-opacity:1;stroke-miterlimit:4;stroke-dasharray:none"
       d="m 546.78572,473.79077 c -0.22677,2.23892 -0.67146,2.60319 1.81505,6.77477 2.48651,4.17158 8.89541,10.09968 16.0745,15.20261 7.17909,5.10293 21.68071,7.91287 27.27412,14.14214 5.59341,6.22927 6.49185,11.52247 7.07107,18.18274 0.57922,6.66027 -2.36203,14.99892 -4.04061,20.20305 -1.67858,5.20413 -4.86856,5.29685 -5.05076,11.11168 -0.1822,5.81483 3.76116,16.05478 8.08122,21.21321 4.32006,5.15843 10.69158,7.85583 15.15229,9.09137 4.46071,1.23554 4.52548,3.97547 10.10152,0 5.57604,-3.97547 9.77991,-19.07018 10.10153,-29.29442 0.32162,-10.22424 -3.20532,-21.17481 -8.08122,-29.29443 -4.8759,-8.11962 -13.83598,-12.22842 -19.1929,-18.18274 -5.35692,-5.95432 -11.4849,-11.6133 -13.13199,-17.1726 -1.64709,-5.5593 -0.46175,-7.58942 1.01016,-13.13198 1.47191,-5.54256 5.81727,-16.50878 9.09137,-19.1929 3.2741,-2.68412 -2.18442,0.5225 4.04061,-1.01015 6.22503,-1.53265 24.00491,-6.75089 33.33503,-8.08122 9.33012,-1.33033 16.33025,-0.4246 22.22336,-1.01015 5.89311,-0.58555 9.08833,-1.16076 13.13198,-2.02031 4.04365,-0.85955 7.0217,0.01 11.11168,-3.03046 4.08998,-3.04024 9.06342,-9.59661 10.10153,-16.16244 1.03811,-6.56583 -3.72248,-13.96579 -5.05077,-20.20305 -1.32829,-6.23726 2.13069,-9.97264 -3.03045,-17.17259 -5.16114,-7.19995 -20.87318,-15.49562 -31.31473,-17.1726 -10.44155,-1.67698 -19.52897,2.92348 -27.27412,5.05077 -7.74515,2.12729 -11.45794,4.65009 -19.1929,7.07106 -7.73496,2.42097 -19.88369,4.60439 -27.27412,7.07107 -7.39043,2.46668 -12.62441,5.2251 -17.17259,7.07107 -4.54818,1.84597 -9.13337,-0.16552 -10.10153,4.04061 -0.96816,4.20613 8.11593,7.01668 10.10153,11.11168 1.9856,4.095 1.99366,7.85933 2.0203,12.12183 0.0266,4.2625 -1.34235,9.09174 -2.0203,13.13198 -0.67795,4.04024 -0.60112,8.67473 -2.02031,11.11168 -1.41919,2.43695 -3.59498,2.94611 -4.31813,3.6073 -0.72315,0.66119 0.32728,-0.24753 -0.17857,0.17857 -0.50585,0.4261 -1.93317,1.48322 -3.03571,2.14285 -1.10254,0.65963 -2.2454,0.70762 -3.57143,1.78572 -1.32603,1.0781 -2.74368,3.11764 -3.88393,4.91072 -1.14025,1.79308 -2.67501,3.56464 -2.90178,5.80356 z"
       id="path18389"
       inkscape:connector-curvature="0"
       sodipodi:nodetypes="zzzzzzzzzzzzzzzzzzzzzzzzzzzzzzzzzzzzzzzz" />
    <path
       style="fill:#f9f9f9;fill-rule:evenodd;stroke:#000000;stroke-width:1px;stroke-linecap:butt;stroke-linejoin:miter;stroke-opacity:1"
       d="m 597.14286,759.50506 c 6.80884,-2.33617 13.96109,6.78509 17.14285,11.42857 3.18176,4.64348 2.60757,7.06436 2.85715,12.85715 0.24958,5.79279 0.67838,14.27412 -2.85715,21.42857 -3.53553,7.15445 -13.77743,10.54525 -18.57142,18.57143 -4.79399,8.02618 -7.12447,17.25903 -8.57143,28.57142 -1.44696,11.31239 -2.65838,30.76232 1.42857,38.57143 4.08695,7.80911 8.94192,3.15462 11.42857,8.57143 2.48665,5.41681 -2.26725,14.8911 -1.42857,21.42857 0.83868,6.53747 4.31094,9.73281 5.71428,17.14286 1.40334,7.41005 0.70768,18.33014 1.42858,27.14286 0.7209,8.81272 4.51044,17.73246 2.85714,25.71428 -1.6533,7.98182 -4.45581,14.71777 -11.42857,19.99997 -6.97276,5.2822 -15.24323,4.9364 -28.57143,7.1429 -13.3282,2.2065 -36.04097,5.2715 -51.42857,4.2857 -15.3876,-0.9858 -27.86009,-5.6887 -40,-8.5714 -12.13991,-2.8827 -20.63122,-7.003 -32.85715,-8.5715 -12.22593,-1.5685 -19.52252,0.1765 -40,0 -20.47748,-0.1765 -64.2802,-1.7324 -82.85714,-1.4285 -18.57694,0.3039 -19.75871,1.2083 -28.57143,1.4285 -8.81272,0.2202 -15.39674,1.0943 -24.28571,0 -8.88897,-1.0943 -22.54663,-1.2553 -28.57143,-7.14281 -5.07866,-4.96295 -1.26315,-7.48197 -3.69187,-11.58791 -1.9638,-4.52807 -5.88573,-8.37739 -8.90244,-12.17921 -2.41558,-3.04425 -8.08596,-4.29001 -7.32238,-6.1047 1.0608,-2.52106 4.64569,0.24005 9.55997,0.80581 10.33566,3.56123 18.96682,3.32398 27.68948,3.8345 4.14654,0.18627 19.25658,4.86809 28.18097,-5.521 6.44951,-7.50803 9.63436,-18.25548 16.46597,-21.96757 5.20256,-2.82691 11.3345,-1.59827 13.73459,-1.56566 7.35006,0.25315 8.35497,9.90037 18.92857,17.14286 10.5736,7.24248 32.67525,8.94924 46.42857,13.21428 13.75332,4.26504 27.41149,3.31927 40.35714,5.35714 12.94565,2.03787 31.9049,-0.94002 52.85714,-1.42857 20.95224,-0.48855 54.27151,3.74402 72.85715,-1.42857 18.58564,-5.17259 30.77029,-12.43462 37.14285,-21.42857 6.37256,-8.99395 3.36202,-15.69876 4.28572,-22.85715 0.9237,-7.15839 3.98636,-13.61166 1.42857,-20 -2.55779,-6.38834 -10.78542,-8.09859 -15.71429,-14.28571 -4.92887,-6.18712 -11.82721,-13.57166 -12.85714,-22.85714 -1.02993,-9.28548 5.23013,-19.27354 8.57143,-28.57143 3.3413,-9.29789 8.30687,-20.01075 11.42857,-27.14286 3.1217,-7.13211 5.52231,-9.21953 7.14286,-15.71428 1.62055,-6.49475 -0.0188,-15.41501 1.42857,-22.85715 1.44737,-7.44214 0.33402,-19.0924 7.14286,-21.42857 z"
       id="path18391"
       inkscape:connector-curvature="0"
       sodipodi:nodetypes="czzzzzzzzzzzzzzzzzzzzscssccssczzzzzzzzzzzzzzzc" />
    <path
       style="fill:#f9f9f9;fill-rule:evenodd;stroke:#000000;stroke-width:1px;stroke-linecap:butt;stroke-linejoin:miter;stroke-opacity:1"
       d="m 347.14286,902.3622 c -12.17857,0.75821 -33.06045,4.92649 -45.71429,5.71429 -12.65384,0.7878 -19.26204,0.66852 -30,0 -10.73796,-0.66852 -28.59325,1.54904 -34.28571,-4.28571 -5.69246,-5.83475 -4.95809,-10.07125 -1.42857,-14.28572 3.52952,-4.21447 7.84705,-1.18438 18.57142,-1.42857 10.72437,-0.24419 28.55657,1.58916 45.71429,1.42857 17.15772,-0.16059 38.07145,-2.85714 57.14286,-2.85714 19.07141,0 37.82043,3.08015 57.14285,2.85714 19.32242,-0.22301 46.91572,1.04883 58.57143,-4.28571 11.65571,-5.33454 9.56225,-7.25742 12.85715,-12.85715 3.2949,-5.59973 1.59318,-16.1176 5.71428,-20 4.1211,-3.8824 7.06435,-2.60756 12.85714,-2.85714 5.79279,-0.24958 22.46677,-6.63361 29.20675,-8.45657 6.73998,-1.82296 14.72725,-6.06039 22.60222,-18.5319 7.61801,-12.06457 11.74092,-21.44584 13.39707,-21.10798 9.21928,1.88078 -24.77834,62.14872 -24.89556,66.37176 -0.18516,6.67071 -6.40174,12.17663 -13.16762,17.43898 -6.76588,5.26235 -21.0882,10.97716 -34.28571,14.28571 -13.19751,3.30855 -28.33369,2.84924 -44.28572,4.28572 -15.95203,1.43648 -38.23001,5.10742 -51.42857,4.28571 -13.19856,-0.82171 -18.04526,-4.76703 -27.14286,-5.71429 -9.0976,-0.94726 -14.96428,-0.75821 -27.14285,0 z"
       id="path18397"
       inkscape:connector-curvature="0"
       sodipodi:nodetypes="zzzzzzzzzzzzzzssszzzzzz" />
    <path
       style="fill:#f9f9f9;fill-rule:evenodd;stroke:#000000;stroke-width:1px;stroke-linecap:butt;stroke-linejoin:miter;stroke-opacity:1"
       d="m 247.14286,808.07649 c 0,0 -34.38364,-3.59285 -51.42857,0 -17.04493,3.59285 -30.44704,12.90548 -48.57143,21.42857 -18.12439,8.52309 -45.19966,20.17294 -60.000003,30 -14.80034,9.82706 -23.3707,14.87385 -30,25.71429 -6.6293,10.84044 -6.935635,23.98716 -8.571428,35.71428 -1.635793,11.72712 -4.838238,27.30668 -1.428572,34.28572 3.409666,6.97904 5.304275,6.77442 10,7.14285 4.695725,0.36843 47.337543,8.49552 56.785713,1.85715 15.02659,-10.55781 -1.19563,-18.41757 2.65152,-30.74476 6.12423,-19.62352 30.46542,-31.09795 44.84848,-32.54096 5.58532,-0.56036 8.08049,-2.29899 11.42857,-7.14285 3.34808,-4.84386 1.77552,-13.25472 4.28572,-21.42858 2.5102,-8.17386 3.55184,-20.53693 11.42857,-27.14285 7.87673,-6.60592 4.48994,-6.79608 18.42857,-10.89286 6.54074,-1.92243 28.12294,-0.62832 37.36365,0.16288 10.56416,0.90452 25.95389,-3.21503 38.49349,-4.98431 21.90563,-3.09078 45.9211,-7.87212 68.57143,-10 22.65033,-2.12788 54.3525,1.71071 67.14286,-2.85714 12.79036,-4.56785 6.79197,-4.37021 11.42857,-8.57143 4.6366,-4.20122 17.21973,-14.50904 22.07825,-21.73906 2.37167,-3.5293 37.68977,-12.58453 36.30142,-21.04421 -1.76929,-10.78089 -7.00498,-4.87509 -11.05266,-3.49104 -7.6218,2.60616 -23.21881,14.40053 -31.21013,17.57834 -8.35379,3.32195 -31.56604,1.26364 -48.97402,1.55311 -17.40798,0.28947 -43.05828,0.55328 -61.42857,2.85715 -18.37029,2.30387 -33.79571,5.86239 -48.57143,10 -14.77572,4.13761 -40,14.28571 -40,14.28571"
       id="path18401"
       inkscape:connector-curvature="0"
       sodipodi:nodetypes="czzzzzzzssszzzssszzzsssszzzc" />
    <path
       style="fill:none;fill-rule:evenodd;stroke:#000000;stroke-width:1px;stroke-linecap:round;stroke-linejoin:miter;stroke-opacity:1"
       d="m 176.07143,124.8622 75.08929,0"
       id="path18545"
       inkscape:connector-curvature="0"
       sodipodi:nodetypes="cc" />
    <path
       style="fill:none;fill-rule:evenodd;stroke:#000000;stroke-width:1px;stroke-linecap:round;stroke-linejoin:miter;stroke-opacity:1"
       d="m 176.875,139.68363 73.39286,-0.53571"
       id="path18547"
       inkscape:connector-curvature="0"
       sodipodi:nodetypes="cc" />
    <g
       id="g18589"
       transform="translate(-9.1923884,4.8718448e-8)">
      <rect
         y="120.21217"
         x="574.24261"
         height="65.541985"
         width="162.17874"
         id="rect18559"
         style="fill:#ffffff;fill-opacity:1;stroke:#dbdbdb;stroke-width:1;stroke-linecap:round;stroke-miterlimit:4;stroke-dasharray:none;stroke-opacity:1" />
      <flowRoot
         transform="translate(-42.857143,24.285714)"
         style="font-style:normal;font-weight:normal;font-size:15px;line-height:125%;font-family:sans-serif;text-align:center;letter-spacing:0px;word-spacing:0px;text-anchor:middle;fill:#000000;fill-opacity:1;stroke:none;stroke-width:1px;stroke-linecap:butt;stroke-linejoin:miter;stroke-opacity:1"
         id="flowRoot18549"
         xml:space="preserve"><flowRegion
           id="flowRegion18551"><rect
             style="text-align:center;text-anchor:middle;fill:#000000;fill-opacity:1"
             y="99.505058"
             x="610"
             height="64.09906"
             width="178.48528"
             id="rect18553" /></flowRegion><flowPara
           id="flowPara18555"
           style="font-size:17.5px">System Diagram</flowPara><flowPara
           id="flowPara18600"
           style="font-size:13.75px">UX F16</flowPara><flowPara
           id="flowPara18587"
           style="font-size:13.75px">Team Ada Lovelace</flowPara></flowRoot>    </g>
  </g>
</svg>
